<svg xmlns="http://www.w3.org/2000/svg" viewBox="0 0 240 240" role="img" aria-label="Pip v2 C fledgling front">
<g id="shadow"><ellipse cx="120" cy="212" rx="62" ry="11" fill="#1E1B3A" opacity="0.12"/></g>
<g id="tail" stroke="#1E1B3A" stroke-width="5.0" stroke-linejoin="round"><path d="M108 186 L112 202 L120 194 L128 202 L132 186 Z" fill="#F4B400"/></g>
<g id="body"><ellipse cx="120" cy="133" rx="60" ry="61" fill="#FFD93D" stroke="#1E1B3A" stroke-width="5.0"/></g><g id="body-shade"><path d="M162 100 Q178 130 168 168 Q176 140 158 108 Z" fill="#B97E00" opacity="0.22"/></g><g id="belly"><ellipse cx="120" cy="158" rx="37" ry="31" fill="#FFF6D6"/></g>
<g id="feet" stroke="#1E1B3A" stroke-width="5.0" stroke-linejoin="round"><g id="foot-L"><ellipse cx="99" cy="196" rx="12" ry="7.5" fill="#FF8A5B"/></g><g id="foot-R"><ellipse cx="141" cy="196" rx="12" ry="7.5" fill="#FF8A5B"/></g></g>
<g id="wings" stroke="#1E1B3A" stroke-width="5.0"><g id="wing-L"><ellipse cx="62" cy="144" rx="16" ry="25" fill="#F4B400"/><path d="M62 130 L62 158" stroke="#1E1B3A" stroke-width="3" stroke-linecap="round" opacity="0.55"/></g><g id="wing-R"><ellipse cx="178" cy="144" rx="16" ry="25" fill="#F4B400"/><path d="M178 130 L178 158" stroke="#1E1B3A" stroke-width="3" stroke-linecap="round" opacity="0.55"/></g></g>
<g id="head-tuft" stroke="#1E1B3A" stroke-width="5.0" stroke-linecap="round" stroke-linejoin="round"><path d="M106 70 Q100 46 112 38 Q118 50 116 68 Z" fill="#FFD93D"/><path d="M120 68 Q120 42 132 34 Q138 48 132 68 Z" fill="#FFD93D"/><path d="M132 70 Q142 52 152 50 Q150 62 142 72 Z" fill="#FFD93D"/></g>
<g id="highlight"><ellipse cx="96" cy="102" rx="17" ry="10" fill="#FFFFFF" opacity="0.55" transform="rotate(-18 96 102)"/></g>
<g id="eyes"><g id="eye-L"><circle cx="96" cy="130" r="15" fill="#FFFFFF" stroke="#1E1B3A" stroke-width="5.0"/><g id="pupil-L"><circle cx="98" cy="132" r="7" fill="#1E1B3A"/><g id="glint-L"><circle cx="95" cy="128" r="2.6" fill="#FFFFFF"/></g></g></g><g id="eye-R"><circle cx="144" cy="130" r="15" fill="#FFFFFF" stroke="#1E1B3A" stroke-width="5.0"/><g id="pupil-R"><circle cx="146" cy="132" r="7" fill="#1E1B3A"/><g id="glint-R"><circle cx="143" cy="128" r="2.6" fill="#FFFFFF"/></g></g></g></g>
<g id="beak"><g id="beak-top"><path d="M106 150 Q120 145 134 150 Q130 161 120 163 Q110 161 106 150 Z" fill="#FF8A5B" stroke="#1E1B3A" stroke-width="5.0" stroke-linejoin="round"/></g></g>
<g id="blush"><ellipse cx="76" cy="153" rx="9" ry="6" fill="#FF8A5B" opacity="0.5"/><ellipse cx="164" cy="153" rx="9" ry="6" fill="#FF8A5B" opacity="0.5"/></g>
</svg>
