<svg xmlns="http://www.w3.org/2000/svg" viewBox="0 0 240 240" role="img" aria-label="Pip v2 C evolve s1s2 frame 3"><g id="shadow"><ellipse cx="120" cy="214" rx="42" ry="11" fill="#1E1B3A" opacity="0.12"/></g><g id="tail"></g><g id="wing_l" opacity="1.0"><path d="M59.6 96.2 C64.3 84.8 49.5 69.6 42.5 68.7 C40.2 75.5 47.3 95.4 59.6 96.2 Z" fill="#F2A900" stroke="#1E1B3A" stroke-width="5" stroke-linejoin="round"/><path d="M54.9 93.9 L43.8 76.0" stroke="#1E1B3A" stroke-width="2.5" stroke-linecap="round" opacity="0.5"/><path d="M59.6 90.9 L48.4 73.1" stroke="#1E1B3A" stroke-width="2.5" stroke-linecap="round" opacity="0.5"/></g><g id="wing_r" opacity="1.0"><path d="M180.4 96.2 C192.7 95.4 199.8 75.5 197.5 68.7 C190.5 69.6 175.7 84.8 180.4 96.2 Z" fill="#F2A900" stroke="#1E1B3A" stroke-width="5" stroke-linejoin="round"/><path d="M180.4 90.9 L191.6 73.1" stroke="#1E1B3A" stroke-width="2.5" stroke-linecap="round" opacity="0.5"/><path d="M185.1 93.9 L196.2 76.0" stroke="#1E1B3A" stroke-width="2.5" stroke-linecap="round" opacity="0.5"/></g><g id="body"><path d="M120 60 C154.44 60 162.84 89.4 160.2696 119.64 C157.69920000000002 138.12 139.278 144 120 144 C100.722 144 82.3008 138.12 79.7304 119.64 C77.16 89.4 85.56 60 120 60 Z" fill="#FFD93D" stroke="#1E1B3A" stroke-width="5"/><g id="body_shade"><path d="M144.7968 69.24000000000001 C161.9832 88.56 161.1264 116.28 145.704 134.76 C152.5584 113.76 150.3072 87.72 144.7968 69.24000000000001 Z" fill="#F2B705"/></g></g><g id="belly"><ellipse cx="120" cy="118" rx="24" ry="20" fill="#FFF1B8"/><path d="M104 100 Q112.0 93 120 100 Q128.0 93 136 100" fill="none" stroke="#1E1B3A" stroke-width="2.5" stroke-linecap="round" opacity="0.45"/></g><g id="cheek_l"><ellipse cx="80" cy="142" rx="9" ry="6.0" fill="#FF8A5B" opacity="0.5"/></g><g id="cheek_r"><ellipse cx="160" cy="142" rx="9" ry="6.0" fill="#FF8A5B" opacity="0.5"/></g><g id="head_tuft" stroke="#1E1B3A" stroke-width="4" stroke-linejoin="round"><circle cx="110" cy="66" r="7" fill="#FFD93D"/><circle cx="122" cy="62" r="8" fill="#FFD93D"/><circle cx="133" cy="68" r="6.5" fill="#FFD93D"/></g><g id="eye_l"><g id="open"></g><g id="closed"></g><g id="happy"><path d="M96 105 Q106 88 116 105" fill="none" stroke="#1E1B3A" stroke-width="5" stroke-linecap="round"/></g><g id="sleepy"></g><g id="surprised"></g><g id="wink"></g></g><g id="eye_r"><g id="open"></g><g id="closed"></g><g id="happy"><path d="M124 105 Q134 88 144 105" fill="none" stroke="#1E1B3A" stroke-width="5" stroke-linecap="round"/></g><g id="sleepy"></g><g id="surprised"></g><g id="wink"></g></g><g id="brow_l"></g><g id="brow_r"></g><g id="beak_top"><path d="M104.0 116 Q120 110 136.0 116 L131.0 121 L109.0 121 Z" fill="#FF8A5B" stroke="#1E1B3A" stroke-width="5" stroke-linejoin="round"/></g><g id="beak_bottom"><ellipse cx="120" cy="130" rx="13" ry="10" fill="#1E1B3A" stroke="#1E1B3A" stroke-width="4"/><ellipse cx="120" cy="134" rx="6.5" ry="4" fill="#FF8A5B"/></g><g id="feet" stroke="#1E1B3A" stroke-width="5"><ellipse cx="99" cy="172" rx="11" ry="7" fill="#FF8A5B"/><ellipse cx="141" cy="172" rx="11" ry="7" fill="#FF8A5B"/></g><g id="shell_top" stroke="#1E1B3A" stroke-width="4" stroke-linejoin="round"><path d="M104 82 L114 70 L124 80 L134 70" fill="#FFF8E8"/></g><g id="shell_bottom" stroke="#1E1B3A" stroke-width="5" stroke-linejoin="round"><path d="M56 148 L66 161 L78 149 L90 163 L100 151 L112 166 L124 152 L136 164 L148 151 L160 163 L170 152 L180 161 L184 150 L176 196 Q120 208 64 196 Z" fill="#FFF8E8"/><circle cx="92" cy="180" r="5" fill="#7C6CF2"/><circle cx="140" cy="184" r="4.5" fill="#7C6CF2"/></g><g id="accessory_head"></g><g id="accessory_neck"></g><g id="accessory_face"></g><g id="highlight"><ellipse cx="102" cy="106" rx="12" ry="7" fill="#FFFFFF" opacity="0.55" transform="rotate(-18 102 106)"/></g><g id="fx"><circle cx="120" cy="130" r="112" fill="#FFF1B8" opacity="0.14"/><circle cx="120" cy="130" r="76" fill="#FFFFFF" opacity="0.10999999999999999"/><path d="M60 60 Q61.8 68.2 70 70 Q61.8 71.8 60 80 Q58.2 71.8 50 70 Q58.2 68.2 60 60 Z" fill="#7C6CF2" opacity="1.0"/><path d="M180 60 Q181.8 68.2 190 70 Q181.8 71.8 180 80 Q178.2 71.8 170 70 Q178.2 68.2 180 60 Z" fill="#F4B400" opacity="1.0" stroke="#1E1B3A" stroke-width="3" stroke-linejoin="round"/><path d="M52 162 Q53.44 168.56 60 170 Q53.44 171.44 52 178 Q50.56 171.44 44 170 Q50.56 168.56 52 162 Z" fill="#FF8A5B" opacity="1.0"/><path d="M188 162 Q189.44 168.56 196 170 Q189.44 171.44 188 178 Q186.56 171.44 180 170 Q186.56 168.56 188 162 Z" fill="#7C6CF2" opacity="1.0"/><circle cx="90" cy="50" r="4" fill="#F4B400" opacity="1.0"/><circle cx="150" cy="50" r="4" fill="#7C6CF2" opacity="1.0"/><path d="M34 49 Q35.98 58.02 45 60 Q35.98 61.98 34 71 Q32.02 61.98 23 60 Q32.02 58.02 34 49 Z" fill="#7C6CF2" opacity="1.0"/><path d="M206 50 Q207.8 58.2 216 60 Q207.8 61.8 206 70 Q204.2 61.8 196 60 Q204.2 58.2 206 50 Z" fill="#F4B400" opacity="1.0" stroke="#1E1B3A" stroke-width="3" stroke-linejoin="round"/><circle cx="52" cy="100" r="4" fill="#7C6CF2" opacity="1.0"/><circle cx="190" cy="104" r="4" fill="#FF8A5B" opacity="1.0"/><path d="M120 29 Q121.26 34.74 127 36 Q121.26 37.26 120 43 Q118.74 37.26 113 36 Q118.74 34.74 120 29 Z" fill="#FFFFFF" opacity="1.0" stroke="#1E1B3A" stroke-width="3" stroke-linejoin="round"/></g></svg>