<svg xmlns="http://www.w3.org/2000/svg" viewBox="0 0 240 240" role="img" aria-label="combo sunny cap"><g id="shadow"><ellipse cx="120" cy="214" rx="62" ry="11" fill="#1E1B3A" opacity="0.12"/></g><g id="tail" stroke="#1E1B3A" stroke-width="5" stroke-linejoin="round"><path d="M108 186 L112 202 L120 194 L128 202 L132 186 Z" fill="#F2A900"/></g><g id="wing_l" opacity="1.0"><path d="M62.0 124.0 C46.0 134.0 53.2 162.8 62.0 169.0 C70.8 162.8 78.0 134.0 62.0 124.0 Z" fill="#F2A900" stroke="#1E1B3A" stroke-width="5" stroke-linejoin="round"/><path d="M70.8 130.2 L70.8 159.5" stroke="#1E1B3A" stroke-width="2.5" stroke-linecap="round" opacity="0.5"/><path d="M62.0 130.2 L62.0 159.5" stroke="#1E1B3A" stroke-width="2.5" stroke-linecap="round" opacity="0.5"/><path d="M53.2 130.2 L53.2 159.5" stroke="#1E1B3A" stroke-width="2.5" stroke-linecap="round" opacity="0.5"/></g><g id="wing_r" opacity="1.0"><path d="M178.0 124.0 C162.0 134.0 169.2 162.8 178.0 169.0 C186.8 162.8 194.0 134.0 178.0 124.0 Z" fill="#F2A900" stroke="#1E1B3A" stroke-width="5" stroke-linejoin="round"/><path d="M186.8 130.2 L186.8 159.5" stroke="#1E1B3A" stroke-width="2.5" stroke-linecap="round" opacity="0.5"/><path d="M178.0 130.2 L178.0 159.5" stroke="#1E1B3A" stroke-width="2.5" stroke-linecap="round" opacity="0.5"/><path d="M169.2 130.2 L169.2 159.5" stroke="#1E1B3A" stroke-width="2.5" stroke-linecap="round" opacity="0.5"/></g><g id="body"><path d="M120 72 C162.0 72 181.2 114.7 177.528 158.62 C173.856 185.46 147.54 194 120 194 C92.46 194 66.144 185.46 62.472 158.62 C58.8 114.7 78.0 72 120 72 Z" fill="#FFD93D" stroke="#1E1B3A" stroke-width="5"/><g id="body_shade"><path d="M150.24 85.42 C179.976 113.48 178.752 153.74 156.72 180.57999999999998 C166.512 150.08 156.96 112.25999999999999 150.24 85.42 Z" fill="#F2B705"/></g></g><g id="belly"><ellipse cx="120" cy="158" rx="37" ry="31" fill="#FFF1B8"/><path d="M98 129 Q109.0 122 120 129 Q131.0 122 142 129" fill="none" stroke="#1E1B3A" stroke-width="2.5" stroke-linecap="round" opacity="0.45"/></g><g id="cheek_l"><ellipse cx="76" cy="153" rx="9" ry="6.0" fill="#FF8A5B" opacity="0.5"/></g><g id="cheek_r"><ellipse cx="164" cy="153" rx="9" ry="6.0" fill="#FF8A5B" opacity="0.5"/></g><g id="head_tuft" stroke="#1E1B3A" stroke-width="5" stroke-linecap="round" stroke-linejoin="round"><path d="M108 70 Q102 50 110 40 Q114 52 116 68 Z" fill="#FFD93D"/><path d="M120 68 Q119 46 128 36 Q133 50 131 68 Z" fill="#FFD93D"/><path d="M131 70 Q139 54 149 52 Q147 62 141 72 Z" fill="#FFD93D"/></g><g id="eye_l"><g id="open"><circle cx="96" cy="130" r="12.5" fill="#FFFFFF" stroke="#1E1B3A" stroke-width="5"/><circle cx="98" cy="132" r="5.75" fill="#1E1B3A"/><circle cx="95.5" cy="128.5" r="2.125" fill="#FFFFFF"/></g><g id="closed"></g><g id="happy"></g><g id="sleepy"></g><g id="surprised"></g><g id="wink"></g></g><g id="eye_r"><g id="open"><circle cx="144" cy="130" r="12.5" fill="#FFFFFF" stroke="#1E1B3A" stroke-width="5"/><circle cx="146" cy="132" r="5.75" fill="#1E1B3A"/><circle cx="143.5" cy="128.5" r="2.125" fill="#FFFFFF"/></g><g id="closed"></g><g id="happy"></g><g id="sleepy"></g><g id="surprised"></g><g id="wink"></g></g><g id="brow_l"></g><g id="brow_r"></g><g id="beak_top"><path d="M106.0 150 Q120 145 134.0 150 Q130.0 161 120 163 Q110.0 161 106.0 150 Z" fill="#FF8A5B" stroke="#1E1B3A" stroke-width="5" stroke-linejoin="round"/></g><g id="beak_bottom"></g><g id="feet" stroke="#1E1B3A" stroke-width="5" stroke-linejoin="round"><ellipse cx="99" cy="196" rx="12" ry="7.5" fill="#FF8A5B"/><ellipse cx="141" cy="196" rx="12" ry="7.5" fill="#FF8A5B"/></g><g id="shell_top"></g><g id="shell_bottom"></g><g id="accessory_head"><path d="M82 84 Q122 50 162 84 L160 94 Q122 66 84 94 Z" fill="#5A9AE6" stroke="#1E1B3A" stroke-width="4.5" stroke-linejoin="round"/><ellipse cx="122" cy="66" rx="28" ry="13" fill="#5A9AE6" stroke="#1E1B3A" stroke-width="4.5"/><circle cx="122" cy="55" r="6" fill="#FFD93D" stroke="#1E1B3A" stroke-width="4"/></g><g id="accessory_neck"></g><g id="accessory_face"></g><g id="highlight"><ellipse cx="96" cy="102" rx="17" ry="10" fill="#FFFFFF" opacity="0.55" transform="rotate(-18 96 102)"/></g><g id="fx"></g></svg>