<svg xmlns="http://www.w3.org/2000/svg" viewBox="0 0 320 200"><g fill="#F4B400" stroke="#1E1B3A" stroke-width="3"><circle cx="30" cy="42" r="17"/><circle cx="292" cy="36" r="14"/><circle cx="16" cy="112" r="12"/><circle cx="304" cy="120" r="16"/><circle cx="56" cy="180" r="12"/><circle cx="268" cy="182" r="14"/><circle cx="160" cy="12" r="10"/><circle cx="112" cy="26" r="8"/><circle cx="212" cy="20" r="8"/></g><g stroke="#1E1B3A" stroke-linejoin="round" stroke-width="3"><path fill="#7C6CF2" d="m78 14 4 10 10 4-10 4-4 10-4-10-10-4 10-4Z"/><path fill="#1F9D63" d="m244 156 4 10 10 4-10 4-4 10-4-10-10-4 10-4Z"/><path fill="#FF8A5B" d="m14 70 4 8 8 4-8 4-4 8-4-8-8-4 8-4Z"/></g></svg>