<svg xmlns="http://www.w3.org/2000/svg" viewBox="0 0 240 240" width="240" height="240" role="img" aria-label="Pip v2 B Bolt · hatchling · sleepy 3">
<g id="shadow"><ellipse cx="120" cy="214" rx="60" ry="10" fill="#1E1B3A" opacity="0.12"/></g>
<g id="tail" opacity="0"/>
<g id="wing_l" fill="#E9AE00" stroke="#1E1B3A" stroke-width="8" stroke-linejoin="round"><path d="M 8.1 -17.5 L -2.43 -17.5 C -13.23 -17.5 -16.2 -7.7 -6.75 -5.25 C -16.74 -0.35 -16.74 9.1 -6.21 11.9 L -1.62 17.5 L 8.1 17.5 C 11.88 6.3 11.88 -6.3 8.1 -17.5 Z" transform="translate(78.6 142.81)translate(0 0)rotate(-14)translate(0 0)"/></g>
<g id="wing_r" fill="#E9AE00" stroke="#1E1B3A" stroke-width="8" stroke-linejoin="round"><path d="M 8.1 -17.5 L -2.43 -17.5 C -13.23 -17.5 -16.2 -7.7 -6.75 -5.25 C -16.74 -0.35 -16.74 9.1 -6.21 11.9 L -1.62 17.5 L 8.1 17.5 C 11.88 6.3 11.88 -6.3 8.1 -17.5 Z" transform="translate(161.4 142.81)translate(0 0)rotate(-14)scale(-1 1)translate(0 0)"/></g>
<g id="body" transform="translate(120 190)scale(1 1.07)translate(-120 -190)"><path d="M 120 94 C 165.54 94 166 125.68 166 147.76 C 166 183.28 148.98 190 120 190 C 91.02 190 74 183.28 74 147.76 C 74 125.68 74.46 94 120 94 Z" fill="#FFD93D" stroke="#1E1B3A" stroke-width="8"/></g>
<g id="belly" transform="translate(120 190)scale(1 1.07)translate(-120 -190)"><ellipse cx="120" cy="156.4" rx="31.28" ry="24.96" fill="#FFF1B8"/></g>
<g id="highlight" transform="translate(120 190)scale(1 1.07)translate(-120 -190)"><ellipse cx="99.76" cy="112.24" rx="13.8" ry="7.2" fill="#FFFFFF" opacity="0.55" transform="rotate(-22 99.76 112.24)"/></g>
<g id="shell_bottom" fill="#FFF7E4" stroke="#1E1B3A" stroke-width="8" stroke-linejoin="round"><path d="M 62 171.79 L 81.72 165.95 L 101.44 174.04 L 121.16 165.95 L 139.72 174.04 L 159.44 165.95 L 178 172.24 C 176.84 209.36 151.32 214 120 214 C 88.68 214 63.16 209.36 62 171.79 Z"/><circle cx="89" cy="198" r="5.5" fill="#E9AE00" stroke="none" opacity="0.4"/><circle cx="155" cy="202" r="4.5" fill="#E9AE00" stroke="none" opacity="0.4"/><circle cx="131" cy="208" r="3.4" fill="#E9AE00" stroke="none" opacity="0.3"/></g>
<g id="feet" opacity="0"/>
<g id="shell_top" transform="translate(120 90.64)rotate(6)scale(1 1.07)translate(-120 -90.64)" fill="#FFF7E4" stroke="#1E1B3A" stroke-width="8" stroke-linejoin="round"><path d="M 80 111.06 L 95.2 104.64 L 110.4 112.13 L 126.4 104.64 L 141.6 112.13 L 160 109.99 C 80 54.26 160 54.26 160 109.99 L 141.6 112.13 L 126.4 104.64 L 110.4 112.13 L 95.2 104.64 L 80 111.06 Z"/><path d="M 107 76.73 L 114 60.68 L 129 59.61 L 136 77.8" fill="none" stroke="#1E1B3A" stroke-width="4" stroke-linecap="round" opacity="0.32"/><circle cx="144" cy="75.66" r="5" fill="#E9AE00" stroke="none" opacity="0.45"/><ellipse cx="103" cy="61.75" rx="11" ry="5.5" fill="#FFFFFF" stroke="none" opacity="0.7" transform="rotate(-28 103 61.75)"/></g>
<g id="head_tuft" transform="translate(120 100.64)rotate(8)scale(1 0.84)translate(-120 -100.64)"><path d="M -27 8 L -25 -35 L -8 -13 L -1 -49 L 14 -13 L 23 -31 L 31 10" transform="translate(120 100.64)" fill="#FFD93D" stroke="#1E1B3A" stroke-width="8" stroke-linejoin="round"/></g>
<g id="head" transform="translate(0 8)translate(120 119.4)rotate(20)translate(-120 -119.4)"><g id="cheek_l"><ellipse cx="87" cy="159" rx="7.5" ry="4.8" fill="#FF8A5B" opacity="0.5"/></g><g id="cheek_r"><ellipse cx="153" cy="159" rx="7.5" ry="4.8" fill="#FF8A5B" opacity="0.5"/></g><g id="brow_l" fill="none" stroke="#1E1B3A" stroke-width="6.5" stroke-linecap="round"></g><g id="brow_r" fill="none" stroke="#1E1B3A" stroke-width="6.5" stroke-linecap="round"></g><g id="eye_l" data-eye="l" transform="translate(100 131)"><g id="open" opacity="0"><circle cx="0" cy="0" r="11.8" fill="#FFFFFF" stroke="#1E1B3A" stroke-width="8"/><circle cx="0" cy="0" r="6.4" fill="#1E1B3A"/><circle cx="-2.71" cy="-2.95" r="2.01" fill="#FFFFFF"/></g><g id="closed" opacity="1"><path d="M -9.68 1.42 L 0 -4.25 L 9.68 1.42" fill="none" stroke="#1E1B3A" stroke-width="8" stroke-linecap="round"/></g><g id="happy" opacity="0"><path d="M -9.68 4.96 L 0 -8.26 L 9.68 4.96" fill="none" stroke="#1E1B3A" stroke-width="9" stroke-linecap="round"/></g><g id="sleepy" opacity="0"><path d="M -9.68 -0.94 L 0 6.14 L 9.68 -0.94" fill="none" stroke="#1E1B3A" stroke-width="8" stroke-linecap="round"/><path d="M 9.68 0 L 14.68 -4.72" fill="none" stroke="#1E1B3A" stroke-width="8" stroke-linecap="round"/></g><g id="surprised" opacity="0"><circle cx="0" cy="0" r="13.69" fill="#FFFFFF" stroke="#1E1B3A" stroke-width="8"/><circle cx="0" cy="0" r="4.22" fill="#1E1B3A"/><circle cx="-2.71" cy="-2.95" r="2.48" fill="#FFFFFF"/></g><g id="wink" opacity="0"><path d="M -9.68 1.65 L 0 -3.54 L 9.68 1.65" fill="none" stroke="#1E1B3A" stroke-width="8" stroke-linecap="round"/><path d="M 9.68 0 L 14.68 -4.72" fill="none" stroke="#1E1B3A" stroke-width="8" stroke-linecap="round"/></g></g><g id="eye_r" data-eye="r" transform="translate(140 131)"><g id="open" opacity="0"><circle cx="0" cy="0" r="11.8" fill="#FFFFFF" stroke="#1E1B3A" stroke-width="8"/><circle cx="0" cy="0" r="6.4" fill="#1E1B3A"/><circle cx="-2.71" cy="-2.95" r="2.01" fill="#FFFFFF"/></g><g id="closed" opacity="1"><path d="M -9.68 1.42 L 0 -4.25 L 9.68 1.42" fill="none" stroke="#1E1B3A" stroke-width="8" stroke-linecap="round"/></g><g id="happy" opacity="0"><path d="M -9.68 4.96 L 0 -8.26 L 9.68 4.96" fill="none" stroke="#1E1B3A" stroke-width="9" stroke-linecap="round"/></g><g id="sleepy" opacity="0"><path d="M -9.68 -0.94 L 0 6.14 L 9.68 -0.94" fill="none" stroke="#1E1B3A" stroke-width="8" stroke-linecap="round"/><path d="M 9.68 0 L 14.68 -4.72" fill="none" stroke="#1E1B3A" stroke-width="8" stroke-linecap="round"/></g><g id="surprised" opacity="0"><circle cx="0" cy="0" r="13.69" fill="#FFFFFF" stroke="#1E1B3A" stroke-width="8"/><circle cx="0" cy="0" r="4.22" fill="#1E1B3A"/><circle cx="-2.71" cy="-2.95" r="2.48" fill="#FFFFFF"/></g><g id="wink" opacity="0"><path d="M -9.68 1.65 L 0 -3.54 L 9.68 1.65" fill="none" stroke="#1E1B3A" stroke-width="8" stroke-linecap="round"/><path d="M -9.68 0 L -14.68 -4.72" fill="none" stroke="#1E1B3A" stroke-width="8" stroke-linecap="round"/></g></g><g id="beak_top"><path d="M -13.5 -6 L 13.5 -6 L 7.02 12 L -7.02 12 L -13.5 -6" transform="translate(120 155)" fill="#FF8A5B" stroke="#1E1B3A" stroke-width="8" stroke-linejoin="round"/></g><g id="beak_bottom" opacity="0"/></g>
<g id="accessory_head"/><g id="accessory_neck"/><g id="accessory_face"/>
<g id="fx"><g id="fx_z_0" transform="translate(174 84)"><path d="M -6.8 -8.84 L 7.14 -8.84 L -6.8 8.84 L 7.14 8.84" fill="none" stroke="#1E1B3A" stroke-width="4.8" stroke-linejoin="round" stroke-linecap="round"/></g><g id="fx_z_1" transform="translate(198 54)"><path d="M -8.4 -10.92 L 8.82 -10.92 L -8.4 10.92 L 8.82 10.92" fill="none" stroke="#1E1B3A" stroke-width="5" stroke-linejoin="round" stroke-linecap="round"/></g></g>
</svg>
