<svg xmlns="http://www.w3.org/2000/svg" viewBox="0 0 240 240" role="img" aria-label="Mochi s2 blink 2 sunny">
<g id="shadow"><ellipse cx="120" cy="212" rx="44" ry="11" fill="#1E1B3A" opacity="0.12"/></g>
<g id="tail"></g>
<g id="wing_l"><ellipse cx="82" cy="129" rx="10" ry="16" fill="#E8A800" stroke="#1E1B3A" stroke-width="6" transform="rotate(-6 82 129)"/></g>
<g id="wing_r"><ellipse cx="158" cy="129" rx="10" ry="16" fill="#E8A800" stroke="#1E1B3A" stroke-width="6" transform="rotate(6 158 129)"/></g>
<g id="body"><ellipse cx="120" cy="123" rx="42" ry="42" fill="#FFD93D" stroke="#1E1B3A" stroke-width="6"/></g>
<g id="belly"><ellipse cx="120" cy="139" rx="24.0" ry="20.0" fill="#FFF1B8"/></g>
<g id="highlight"><ellipse cx="97" cy="94" rx="18" ry="10" fill="#FFFFFF" opacity="0.55" transform="rotate(-18 97 94)"/></g>
<g id="cheek_l"><ellipse cx="85" cy="144" rx="10" ry="6.5" fill="#FF8A5B" opacity="0.55"/></g><g id="cheek_r"><ellipse cx="155" cy="144" rx="10" ry="6.5" fill="#FF8A5B" opacity="0.55"/></g>
<g id="head_tuft" stroke="#1E1B3A" stroke-width="6" stroke-linejoin="round"><circle cx="102" cy="85" r="7" fill="#FFD93D"/><circle cx="114" cy="81" r="8" fill="#FFD93D"/><circle cx="125" cy="86" r="6.5" fill="#FFD93D"/></g>
<g id="eye_l"><g id="open" style="display:none"><circle cx="106" cy="121" r="11" fill="#FFFFFF" stroke="#1E1B3A" stroke-width="6"/><circle cx="108" cy="123" r="5" fill="#1E1B3A"/><circle cx="105" cy="119" r="1.7" fill="#FFFFFF"/></g><g id="closed"><path d="M95 121 Q106 130.9 117 121" fill="none" stroke="#1E1B3A" stroke-width="6" stroke-linecap="round"/></g><g id="happy" style="display:none"><path d="M95 126 Q106 108 117 126" fill="none" stroke="#1E1B3A" stroke-width="6" stroke-linecap="round"/></g><g id="sleepy" style="display:none"><path d="M95 119 Q106 127.05 117 119" fill="none" stroke="#1E1B3A" stroke-width="6" stroke-linecap="round"/><path d="M115 121 l6 4" stroke="#1E1B3A" stroke-width="3.5" stroke-linecap="round"/></g><g id="surprised" style="display:none"><circle cx="106" cy="121" r="14" fill="#FFFFFF" stroke="#1E1B3A" stroke-width="6"/><circle cx="106" cy="122" r="5" fill="#1E1B3A"/><circle cx="104" cy="119" r="2" fill="#FFFFFF"/></g><g id="wink" style="display:none"><path d="M95 121 Q106 127 117 121" fill="none" stroke="#1E1B3A" stroke-width="6" stroke-linecap="round"/></g></g>
<g id="eye_r"><g id="open" style="display:none"><circle cx="134" cy="121" r="11" fill="#FFFFFF" stroke="#1E1B3A" stroke-width="6"/><circle cx="136" cy="123" r="5" fill="#1E1B3A"/><circle cx="133" cy="119" r="1.7" fill="#FFFFFF"/></g><g id="closed"><path d="M123 121 Q134 130.9 145 121" fill="none" stroke="#1E1B3A" stroke-width="6" stroke-linecap="round"/></g><g id="happy" style="display:none"><path d="M123 126 Q134 108 145 126" fill="none" stroke="#1E1B3A" stroke-width="6" stroke-linecap="round"/></g><g id="sleepy" style="display:none"><path d="M123 119 Q134 127.05 145 119" fill="none" stroke="#1E1B3A" stroke-width="6" stroke-linecap="round"/><path d="M143 121 l6 4" stroke="#1E1B3A" stroke-width="3.5" stroke-linecap="round"/></g><g id="surprised" style="display:none"><circle cx="134" cy="121" r="14" fill="#FFFFFF" stroke="#1E1B3A" stroke-width="6"/><circle cx="134" cy="122" r="5" fill="#1E1B3A"/><circle cx="132" cy="119" r="2" fill="#FFFFFF"/></g><g id="wink" style="display:none"><path d="M123 121 Q134 127 145 121" fill="none" stroke="#1E1B3A" stroke-width="6" stroke-linecap="round"/></g></g>
<g id="brow_l"></g><g id="brow_r"></g>
<g id="beak_top"><path d="M106 142 Q120 137 134 142 Q130 153 120 155 Q110 153 106 142 Z" fill="#FF8A5B" stroke="#1E1B3A" stroke-width="6" stroke-linejoin="round"/></g><g id="beak_bottom" style="display:none"><ellipse cx="120" cy="150" rx="10" ry="7"/></g>
<g id="feet"></g>
<g id="shell_top"><path d="M104 73 Q108 51 126 51 Q142 47 160 55 Q168 59 166 71 L154 79 L142 71 L130 79 L118 72 Z" fill="#FFF8E8" stroke="#1E1B3A" stroke-width="6" stroke-linejoin="round"/><circle cx="136" cy="61" r="3.5" fill="#7C6CF2"/></g>
<g id="shell_bottom"><path d="M78 151 L92 163 L106 151 L120 165 L134 151 L148 163 L162 151 L158 187 Q120 199 82 187 Z" fill="#FFF8E8" stroke="#1E1B3A" stroke-width="6" stroke-linejoin="round"/><circle cx="100" cy="176" r="4.5" fill="#7C6CF2"/><circle cx="140" cy="178" r="4" fill="#7C6CF2"/></g>
<g id="accessory_head"></g>
<g id="accessory_neck"></g>
<g id="accessory_face"></g>
<g id="fx"></g>
</svg>