<svg xmlns="http://www.w3.org/2000/svg" viewBox="0 0 240 240" role="img" aria-label="Mochi s3 eating 2 sunny">
<g id="shadow"><ellipse cx="120" cy="212" rx="62" ry="11" fill="#1E1B3A" opacity="0.12"/></g>
<g id="tail" stroke="#1E1B3A" stroke-width="6" stroke-linejoin="round"><path d="M108 186 L112 202 L120 194 L128 202 L132 186 Z" fill="#E8A800"/></g>
<g id="wing_l"><ellipse cx="62" cy="166" rx="13" ry="17" fill="#E8A800" stroke="#1E1B3A" stroke-width="6" transform="rotate(-4 62 166)"/></g>
<g id="wing_r"><ellipse cx="178" cy="166" rx="13" ry="17" fill="#E8A800" stroke="#1E1B3A" stroke-width="6" transform="rotate(4 178 166)"/></g>
<g id="body"><ellipse cx="120" cy="140" rx="67" ry="57" fill="#FFD93D" stroke="#1E1B3A" stroke-width="6"/></g>
<g id="belly"><ellipse cx="120" cy="165" rx="41.0" ry="31.5" fill="#FFF1B8"/></g>
<g id="highlight"><ellipse cx="97" cy="111" rx="18" ry="10" fill="#FFFFFF" opacity="0.55" transform="rotate(-18 97 111)"/></g>
<g id="cheek_l"><ellipse cx="75" cy="160" rx="10" ry="6.5" fill="#FF8A5B" opacity="0.7"/></g><g id="cheek_r"><ellipse cx="165" cy="160" rx="10" ry="6.5" fill="#FF8A5B" opacity="0.7"/></g>
<g id="head_tuft" stroke="#1E1B3A" stroke-width="6" stroke-linejoin="round"><circle cx="102" cy="76" r="11" fill="#FFD93D"/><circle cx="120" cy="68" r="12.5" fill="#FFD93D"/><circle cx="138" cy="76" r="11" fill="#FFD93D"/></g>
<g id="eye_l"><g id="open" style="display:none"><circle cx="96" cy="137" r="16" fill="#FFFFFF" stroke="#1E1B3A" stroke-width="6"/><circle cx="98" cy="139" r="7.5" fill="#1E1B3A"/><circle cx="95" cy="135" r="2.6" fill="#FFFFFF"/></g><g id="closed" style="display:none"><path d="M80 137 Q96 151.4 112 137" fill="none" stroke="#1E1B3A" stroke-width="6" stroke-linecap="round"/></g><g id="happy"><path d="M80 142 Q96 119 112 142" fill="none" stroke="#1E1B3A" stroke-width="6" stroke-linecap="round"/></g><g id="sleepy" style="display:none"><path d="M80 135 Q96 145.8 112 135" fill="none" stroke="#1E1B3A" stroke-width="7" stroke-linecap="round"/><path d="M81 136 l-7 5 M111 136 l7 5" stroke="#1E1B3A" stroke-width="3.5" stroke-linecap="round"/></g><g id="surprised" style="display:none"><circle cx="96" cy="137" r="19" fill="#FFFFFF" stroke="#1E1B3A" stroke-width="6"/><circle cx="96" cy="138" r="5" fill="#1E1B3A"/><circle cx="94" cy="135" r="2" fill="#FFFFFF"/></g><g id="wink" style="display:none"><path d="M80 137 Q96 143 112 137" fill="none" stroke="#1E1B3A" stroke-width="6" stroke-linecap="round"/></g></g>
<g id="eye_r"><g id="open" style="display:none"><circle cx="144" cy="137" r="16" fill="#FFFFFF" stroke="#1E1B3A" stroke-width="6"/><circle cx="146" cy="139" r="7.5" fill="#1E1B3A"/><circle cx="143" cy="135" r="2.6" fill="#FFFFFF"/></g><g id="closed" style="display:none"><path d="M128 137 Q144 151.4 160 137" fill="none" stroke="#1E1B3A" stroke-width="6" stroke-linecap="round"/></g><g id="happy"><path d="M128 142 Q144 119 160 142" fill="none" stroke="#1E1B3A" stroke-width="6" stroke-linecap="round"/></g><g id="sleepy" style="display:none"><path d="M128 135 Q144 145.8 160 135" fill="none" stroke="#1E1B3A" stroke-width="7" stroke-linecap="round"/><path d="M129 136 l-7 5 M159 136 l7 5" stroke="#1E1B3A" stroke-width="3.5" stroke-linecap="round"/></g><g id="surprised" style="display:none"><circle cx="144" cy="137" r="19" fill="#FFFFFF" stroke="#1E1B3A" stroke-width="6"/><circle cx="144" cy="138" r="5" fill="#1E1B3A"/><circle cx="142" cy="135" r="2" fill="#FFFFFF"/></g><g id="wink" style="display:none"><path d="M128 137 Q144 143 160 137" fill="none" stroke="#1E1B3A" stroke-width="6" stroke-linecap="round"/></g></g>
<g id="brow_l"></g><g id="brow_r"></g>
<g id="beak_top"><path d="M104 160 Q120 154 136 160 L132 164 L108 164 Z" fill="#FF8A5B" stroke="#1E1B3A" stroke-width="6" stroke-linejoin="round"/></g><g id="beak_bottom"><ellipse cx="120" cy="175" rx="13" ry="11" fill="#1E1B3A"/><ellipse cx="120" cy="179" rx="7" ry="4.5" fill="#FF8A5B"/></g>
<g id="feet" stroke="#1E1B3A" stroke-width="6"><ellipse cx="99" cy="203" rx="13" ry="8.5" fill="#FF8A5B"/><ellipse cx="141" cy="203" rx="13" ry="8.5" fill="#FF8A5B"/></g>
<g id="shell_top"></g>
<g id="shell_bottom"></g>
<g id="accessory_head"></g>
<g id="accessory_neck"></g>
<g id="accessory_face"></g>
<g id="fx"><g><circle cx="130" cy="170" r="11" fill="#E5484D" stroke="#1E1B3A" stroke-width="5"/><circle cx="126.15" cy="166.15" r="3.1" fill="#FFFFFF" opacity="0.85"/><path d="M135.5 160.1 q7 -6 13 -3 q-5 7 -13 3 Z" fill="#3FA67E" stroke="#1E1B3A" stroke-width="3" stroke-linejoin="round"/></g><circle cx="58" cy="182" r="3.5" fill="#8B5A2B" stroke="#1E1B3A" stroke-width="2.5"/><circle cx="182" cy="180" r="3.5" fill="#8B5A2B" stroke="#1E1B3A" stroke-width="2.5"/></g>
</svg>