<svg xmlns="http://www.w3.org/2000/svg" viewBox="0 0 240 240" role="img" aria-label="Mochi s4 proud 1 sunny">
<g id="shadow"><ellipse cx="120" cy="212" rx="68" ry="11" fill="#1E1B3A" opacity="0.12"/></g>
<g id="tail" stroke="#1E1B3A" stroke-width="6" stroke-linejoin="round"><ellipse cx="96" cy="192" rx="14" ry="27" fill="#E8A800" transform="rotate(-20 96 192)"/><ellipse cx="120" cy="194" rx="14" ry="27" fill="#E8A800" transform="rotate(0 120 194)"/><ellipse cx="144" cy="192" rx="14" ry="27" fill="#E8A800" transform="rotate(20 144 192)"/></g>
<g id="body"><path d="M120 55.0 C159 55.0 166 91.0 155 120 C182 142 175 165.0 120 197.0 C65 165.0 58 142 85 120 C74 91.0 81 55.0 120 55.0 Z" fill="#FFD93D" stroke="#1E1B3A" stroke-width="6"/></g>
<g id="belly"><ellipse cx="120" cy="158" rx="33" ry="25" fill="#FFF1B8"/></g>
<g id="wing_l"><path d="M56.0 146 Q62.8 157.9 76 154 Q69.2 142.1 56.0 146 Z" fill="#E8A800" stroke="#1E1B3A" stroke-width="6" stroke-linejoin="round"/></g>
<g id="wing_r"><path d="M184.0 146 Q170.8 142.1 164 154 Q177.2 157.9 184.0 146 Z" fill="#E8A800" stroke="#1E1B3A" stroke-width="6" stroke-linejoin="round"/></g>
<g id="highlight"><ellipse cx="92" cy="82" rx="16" ry="9" fill="#FFFFFF" opacity="0.55" transform="rotate(-18 92 82)"/></g>
<g id="cheek_l"><ellipse cx="77" cy="131" rx="10" ry="6.5" fill="#FF8A5B" opacity="0.4"/></g><g id="cheek_r"><ellipse cx="163" cy="131" rx="10" ry="6.5" fill="#FF8A5B" opacity="0.4"/></g>
<g id="head_tuft" stroke="#1E1B3A" stroke-width="6" stroke-linejoin="round"><circle cx="96" cy="51.0" r="11" fill="#FFD93D"/><circle cx="114" cy="39.0" r="13" fill="#FFD93D"/><circle cx="134" cy="41.0" r="12" fill="#FFD93D"/><circle cx="150" cy="53.0" r="10" fill="#FFD93D"/></g>
<g id="eye_l"><g id="open"><circle cx="98" cy="108" r="15" fill="#FFFFFF" stroke="#1E1B3A" stroke-width="6"/><circle cx="100" cy="110" r="7" fill="#1E1B3A"/><circle cx="97" cy="106" r="2.4" fill="#FFFFFF"/></g><g id="closed" style="display:none"><path d="M83 108 Q98 121.5 113 108" fill="none" stroke="#1E1B3A" stroke-width="6" stroke-linecap="round"/></g><g id="happy" style="display:none"><path d="M83 113 Q98 91 113 113" fill="none" stroke="#1E1B3A" stroke-width="6" stroke-linecap="round"/></g><g id="sleepy" style="display:none"><path d="M83 106 Q98 116.25 113 106" fill="none" stroke="#1E1B3A" stroke-width="7" stroke-linecap="round"/><path d="M84 107 l-7 5 M112 107 l7 5" stroke="#1E1B3A" stroke-width="3.5" stroke-linecap="round"/></g><g id="surprised" style="display:none"><circle cx="98" cy="108" r="18" fill="#FFFFFF" stroke="#1E1B3A" stroke-width="6"/><circle cx="98" cy="109" r="5" fill="#1E1B3A"/><circle cx="96" cy="106" r="2" fill="#FFFFFF"/></g><g id="wink" style="display:none"><path d="M83 108 Q98 114 113 108" fill="none" stroke="#1E1B3A" stroke-width="6" stroke-linecap="round"/></g></g>
<g id="eye_r"><g id="open"><circle cx="142" cy="108" r="15" fill="#FFFFFF" stroke="#1E1B3A" stroke-width="6"/><circle cx="144" cy="110" r="7" fill="#1E1B3A"/><circle cx="141" cy="106" r="2.4" fill="#FFFFFF"/></g><g id="closed" style="display:none"><path d="M127 108 Q142 121.5 157 108" fill="none" stroke="#1E1B3A" stroke-width="6" stroke-linecap="round"/></g><g id="happy" style="display:none"><path d="M127 113 Q142 91 157 113" fill="none" stroke="#1E1B3A" stroke-width="6" stroke-linecap="round"/></g><g id="sleepy" style="display:none"><path d="M127 106 Q142 116.25 157 106" fill="none" stroke="#1E1B3A" stroke-width="7" stroke-linecap="round"/><path d="M128 107 l-7 5 M156 107 l7 5" stroke="#1E1B3A" stroke-width="3.5" stroke-linecap="round"/></g><g id="surprised" style="display:none"><circle cx="142" cy="108" r="18" fill="#FFFFFF" stroke="#1E1B3A" stroke-width="6"/><circle cx="142" cy="109" r="5" fill="#1E1B3A"/><circle cx="140" cy="106" r="2" fill="#FFFFFF"/></g><g id="wink" style="display:none"><path d="M127 108 Q142 114 157 108" fill="none" stroke="#1E1B3A" stroke-width="6" stroke-linecap="round"/></g></g>
<g id="brow_l"><path d="M86 77 L110 69" fill="none" stroke="#1E1B3A" stroke-width="5" stroke-linecap="round"/></g><g id="brow_r"><path d="M130 77 L154 85" fill="none" stroke="#1E1B3A" stroke-width="5" stroke-linecap="round"/></g>
<g id="beak_top"><path d="M106 129 Q120 124 134 129 Q130 140 120 142 Q110 140 106 129 Z" fill="#FF8A5B" stroke="#1E1B3A" stroke-width="6" stroke-linejoin="round"/></g><g id="beak_bottom" style="display:none"><ellipse cx="120" cy="137" rx="10" ry="7"/></g>
<g id="feet" stroke="#1E1B3A" stroke-width="6"><ellipse cx="95" cy="190" rx="13" ry="8.5" fill="#FF8A5B"/><ellipse cx="145" cy="190" rx="13" ry="8.5" fill="#FF8A5B"/></g>
<g id="shell_top"></g>
<g id="shell_bottom"></g>
<g id="accessory_head"></g>
<g id="accessory_neck"></g>
<g id="accessory_face"></g>
<g id="fx"></g>
</svg>