<svg xmlns="http://www.w3.org/2000/svg" viewBox="0 0 240 240" role="img" aria-label="Pip v2 C stage 2 happy_1"><g id="shadow"><ellipse cx="120" cy="214" rx="66" ry="11" fill="#1E1B3A" opacity="0.12"/></g><g id="tail"></g><g id="wing_l" opacity="1.0"><ellipse cx="78" cy="136" rx="10" ry="13" fill="#F2A900" stroke="#1E1B3A" stroke-width="5" transform="rotate(-12 78 136)"/><path d="M78 129 L78 143" stroke="#1E1B3A" stroke-width="3" stroke-linecap="round" opacity="0.55"/></g><g id="wing_r" opacity="1.0"><ellipse cx="162" cy="136" rx="10" ry="13" fill="#F2A900" stroke="#1E1B3A" stroke-width="5" transform="rotate(12 162 136)"/><path d="M162 129 L162 143" stroke="#1E1B3A" stroke-width="3" stroke-linecap="round" opacity="0.55"/></g><g id="body"><ellipse cx="120" cy="129" rx="49" ry="35" fill="#FFD93D" stroke="#1E1B3A" stroke-width="5"/></g><g id="belly"><ellipse cx="120" cy="145" rx="28" ry="16" fill="#FFF1B8"/></g><g id="cheek_l"><ellipse cx="80" cy="142" rx="9" ry="6.0" fill="#FF8A5B" opacity="0.5"/></g><g id="cheek_r"><ellipse cx="160" cy="142" rx="9" ry="6.0" fill="#FF8A5B" opacity="0.5"/></g><g id="head_tuft" stroke="#1E1B3A" stroke-width="4" stroke-linejoin="round"><circle cx="110" cy="93" r="7" fill="#FFD93D"/><circle cx="122" cy="89" r="8" fill="#FFD93D"/><circle cx="133" cy="95" r="6.5" fill="#FFD93D"/></g><g id="eye_l"><g id="open"></g><g id="closed"></g><g id="happy"><path d="M95 125 Q106 107 117 125" fill="none" stroke="#1E1B3A" stroke-width="5" stroke-linecap="round"/></g><g id="sleepy"></g><g id="surprised"></g><g id="wink"></g></g><g id="eye_r"><g id="open"></g><g id="closed"></g><g id="happy"><path d="M123 125 Q134 107 145 125" fill="none" stroke="#1E1B3A" stroke-width="5" stroke-linecap="round"/></g><g id="sleepy"></g><g id="surprised"></g><g id="wink"></g></g><g id="brow_l"></g><g id="brow_r"></g><g id="beak_top"><path d="M106.0 136 Q120 131 134.0 136 Q130.0 147 120 149 Q110.0 147 106.0 136 Z" fill="#FF8A5B" stroke="#1E1B3A" stroke-width="5" stroke-linejoin="round"/></g><g id="beak_bottom"></g><g id="feet" stroke="#1E1B3A" stroke-width="5"><ellipse cx="99" cy="186" rx="11" ry="7" fill="#FF8A5B"/><ellipse cx="141" cy="186" rx="11" ry="7" fill="#FF8A5B"/></g><g id="shell_top" stroke="#1E1B3A" stroke-width="4" stroke-linejoin="round"><path d="M104 82 L114 70 L124 80 L134 70" fill="#FFF8E8"/></g><g id="shell_bottom" stroke="#1E1B3A" stroke-width="5" stroke-linejoin="round"><path d="M56 148 L72 160 L86 148 L102 162 L118 149 L134 163 L150 149 L164 162 L180 150 L184 148 L176 196 Q120 208 64 196 Z" fill="#FFF8E8"/><circle cx="92" cy="180" r="5" fill="#7C6CF2"/><circle cx="140" cy="184" r="4.5" fill="#7C6CF2"/></g><g id="accessory_head"></g><g id="accessory_neck"></g><g id="accessory_face"></g><g id="highlight"><ellipse cx="102" cy="106" rx="12" ry="7" fill="#FFFFFF" opacity="0.55" transform="rotate(-18 102 106)"/></g><g id="fx"></g></svg>