<svg xmlns="http://www.w3.org/2000/svg" viewBox="0 0 240 240" role="img" aria-label="Pip v2 C stage 2 idle_2"><g id="shadow"><ellipse cx="120" cy="214" rx="58" ry="11" fill="#1E1B3A" opacity="0.12"/></g><g id="tail"></g><g id="wing_l" opacity="1.0"><path d="M82.0 115.2 C72.0 121.6 76.5 140.0 82.0 144.0 C87.5 140.0 92.0 121.6 82.0 115.2 Z" fill="#F2A900" stroke="#1E1B3A" stroke-width="5" stroke-linejoin="round"/><path d="M84.8 119.2 L84.8 137.9" stroke="#1E1B3A" stroke-width="2.5" stroke-linecap="round" opacity="0.5"/><path d="M79.2 119.2 L79.2 137.9" stroke="#1E1B3A" stroke-width="2.5" stroke-linecap="round" opacity="0.5"/></g><g id="wing_r" opacity="1.0"><path d="M158.0 115.2 C148.0 121.6 152.5 140.0 158.0 144.0 C163.5 140.0 168.0 121.6 158.0 115.2 Z" fill="#F2A900" stroke="#1E1B3A" stroke-width="5" stroke-linejoin="round"/><path d="M160.8 119.2 L160.8 137.9" stroke="#1E1B3A" stroke-width="2.5" stroke-linecap="round" opacity="0.5"/><path d="M155.2 119.2 L155.2 137.9" stroke="#1E1B3A" stroke-width="2.5" stroke-linecap="round" opacity="0.5"/></g><g id="body"><path d="M120 77 C154.44 77 162.84 108.5 160.2696 140.9 C157.69920000000002 160.7 139.278 167 120 167 C100.722 167 82.3008 160.7 79.7304 140.9 C77.16 108.5 85.56 77 120 77 Z" fill="#FFD93D" stroke="#1E1B3A" stroke-width="5"/><g id="body_shade"><path d="M144.7968 86.9 C161.9832 107.6 161.1264 137.3 145.704 157.1 C152.5584 134.6 150.3072 106.7 144.7968 86.9 Z" fill="#F2B705"/></g></g><g id="belly"><ellipse cx="120" cy="138" rx="24" ry="22" fill="#FFF1B8"/><path d="M104 118 Q112.0 111 120 118 Q128.0 111 136 118" fill="none" stroke="#1E1B3A" stroke-width="2.5" stroke-linecap="round" opacity="0.45"/></g><g id="cheek_l"><ellipse cx="80" cy="142" rx="9" ry="6.0" fill="#FF8A5B" opacity="0.5"/></g><g id="cheek_r"><ellipse cx="160" cy="142" rx="9" ry="6.0" fill="#FF8A5B" opacity="0.5"/></g><g id="head_tuft" stroke="#1E1B3A" stroke-width="4" stroke-linejoin="round"><circle cx="110" cy="86" r="7" fill="#FFD93D"/><circle cx="122" cy="82" r="8" fill="#FFD93D"/><circle cx="133" cy="88" r="6.5" fill="#FFD93D"/></g><g id="eye_l"><g id="open"><circle cx="108" cy="120" r="10" fill="#FFFFFF" stroke="#1E1B3A" stroke-width="5"/><circle cx="110" cy="122" r="4.6000000000000005" fill="#1E1B3A"/><circle cx="108.0" cy="119.2" r="1.7000000000000002" fill="#FFFFFF"/></g><g id="closed"></g><g id="happy"></g><g id="sleepy"></g><g id="surprised"></g><g id="wink"></g></g><g id="eye_r"><g id="open"><circle cx="136" cy="120" r="10" fill="#FFFFFF" stroke="#1E1B3A" stroke-width="5"/><circle cx="138" cy="122" r="4.6000000000000005" fill="#1E1B3A"/><circle cx="136.0" cy="119.2" r="1.7000000000000002" fill="#FFFFFF"/></g><g id="closed"></g><g id="happy"></g><g id="sleepy"></g><g id="surprised"></g><g id="wink"></g></g><g id="brow_l"></g><g id="brow_r"></g><g id="beak_top"><path d="M108.0 136 Q122 131 136.0 136 Q132.0 147 122 149 Q112.0 147 108.0 136 Z" fill="#FF8A5B" stroke="#1E1B3A" stroke-width="5" stroke-linejoin="round"/></g><g id="beak_bottom"></g><g id="feet" stroke="#1E1B3A" stroke-width="5"><ellipse cx="99" cy="186" rx="11" ry="7" fill="#FF8A5B"/><ellipse cx="141" cy="186" rx="11" ry="7" fill="#FF8A5B"/></g><g id="shell_top" stroke="#1E1B3A" stroke-width="4" stroke-linejoin="round"><path d="M104 82 L114 70 L124 80 L134 70" fill="#FFF8E8"/></g><g id="shell_bottom" stroke="#1E1B3A" stroke-width="5" stroke-linejoin="round"><path d="M56 148 L66 161 L78 149 L90 163 L100 151 L112 166 L124 152 L136 164 L148 151 L160 163 L170 152 L180 161 L184 150 L176 196 Q120 208 64 196 Z" fill="#FFF8E8"/><circle cx="92" cy="180" r="5" fill="#7C6CF2"/><circle cx="140" cy="184" r="4.5" fill="#7C6CF2"/></g><g id="accessory_head"></g><g id="accessory_neck"></g><g id="accessory_face"></g><g id="highlight"><ellipse cx="102" cy="106" rx="12" ry="7" fill="#FFFFFF" opacity="0.55" transform="rotate(-18 102 106)"/></g><g id="fx"></g></svg>