<svg xmlns="http://www.w3.org/2000/svg" viewBox="0 0 240 240" role="img" aria-label="Pip v2 C stage 3 happy_3"><g id="shadow"><ellipse cx="120" cy="214" rx="68" ry="11" fill="#1E1B3A" opacity="0.12"/></g><g id="tail" stroke="#1E1B3A" stroke-width="5" stroke-linejoin="round"><path d="M108 191 L112 207 L120 199 L128 207 L132 191 Z" fill="#F2A900"/></g><g id="wing_l" opacity="1.0"><ellipse cx="56" cy="148" rx="16" ry="25" fill="#F2A900" stroke="#1E1B3A" stroke-width="5" transform="rotate(-14 56 148)"/><path d="M56 129 L56 167" stroke="#1E1B3A" stroke-width="3" stroke-linecap="round" opacity="0.55"/></g><g id="wing_r" opacity="1.0"><ellipse cx="184" cy="148" rx="16" ry="25" fill="#F2A900" stroke="#1E1B3A" stroke-width="5" transform="rotate(14 184 148)"/><path d="M184 129 L184 167" stroke="#1E1B3A" stroke-width="3" stroke-linecap="round" opacity="0.55"/></g><g id="body"><ellipse cx="120" cy="138" rx="65" ry="56" fill="#FFD93D" stroke="#1E1B3A" stroke-width="5"/><g id="body_shade"><path d="M162 100 Q178 130 168 168 Q176 140 158 108 Z" fill="#B97E00" opacity="0.22" transform="translate(0 5)"/></g></g><g id="belly"><ellipse cx="120" cy="163" rx="39" ry="29" fill="#FFF1B8"/></g><g id="cheek_l"><ellipse cx="76" cy="158" rx="9" ry="6.0" fill="#FF8A5B" opacity="0.5"/></g><g id="cheek_r"><ellipse cx="164" cy="158" rx="9" ry="6.0" fill="#FF8A5B" opacity="0.5"/></g><g id="head_tuft" stroke="#1E1B3A" stroke-width="5" stroke-linecap="round" stroke-linejoin="round"><path d="M106 70 Q100 46 112 38 Q118 50 116 68 Z" fill="#FFD93D"/><path d="M120 68 Q120 42 132 34 Q138 48 132 68 Z" fill="#FFD93D"/><path d="M132 70 Q142 52 152 50 Q150 62 142 72 Z" fill="#FFD93D"/></g><g id="eye_l"><g id="open"></g><g id="closed"></g><g id="happy"><path d="M81 135 Q96 113 111 135" fill="none" stroke="#1E1B3A" stroke-width="5" stroke-linecap="round"/></g><g id="sleepy"></g><g id="surprised"></g><g id="wink"></g></g><g id="eye_r"><g id="open"></g><g id="closed"></g><g id="happy"><path d="M129 135 Q144 113 159 135" fill="none" stroke="#1E1B3A" stroke-width="5" stroke-linecap="round"/></g><g id="sleepy"></g><g id="surprised"></g><g id="wink"></g></g><g id="brow_l"></g><g id="brow_r"></g><g id="beak_top"><path d="M104.0 150 Q120 144 136.0 150 L131.0 155 L109.0 155 Z" fill="#FF8A5B" stroke="#1E1B3A" stroke-width="5" stroke-linejoin="round"/></g><g id="beak_bottom"><ellipse cx="120" cy="164" rx="13" ry="10" fill="#1E1B3A" stroke="#1E1B3A" stroke-width="4"/><ellipse cx="120" cy="168" rx="6.5" ry="4" fill="#FF8A5B"/></g><g id="feet" stroke="#1E1B3A" stroke-width="5" stroke-linejoin="round"><ellipse cx="99" cy="196" rx="12" ry="7.5" fill="#FF8A5B"/><ellipse cx="141" cy="196" rx="12" ry="7.5" fill="#FF8A5B"/></g><g id="shell_top"></g><g id="shell_bottom"></g><g id="accessory_head"></g><g id="accessory_neck"></g><g id="accessory_face"></g><g id="highlight"><ellipse cx="96" cy="107" rx="17" ry="10" fill="#FFFFFF" opacity="0.55" transform="rotate(-18 96 107)"/></g><g id="fx"><path d="M40 62 Q41.44 68.56 48 70 Q41.44 71.44 40 78 Q38.56 71.44 32 70 Q38.56 68.56 40 62 Z" fill="#7C6CF2" opacity="0.7"/><path d="M200 65 Q201.26 70.74 207 72 Q201.26 73.26 200 79 Q198.74 73.26 193 72 Q198.74 70.74 200 65 Z" fill="#F4B400" opacity="0.7" stroke="#1E1B3A" stroke-width="3" stroke-linejoin="round"/></g></svg>